Coordinates
version=1
nRows=10
nColumns=63
inDegrees=yes

Units are S.I. units (second, meters, Newtons, ...)
If the header above contains a line with 'inDegrees', this indicates whether rotational values are in degrees (yes) or radians (no).

endheader
time	pelvis_tilt	pelvis_list	pelvis_rotation	pelvis_tx	pelvis_ty	pelvis_tz	hip_flexion_r	hip_adduction_r	hip_rotation_r	knee_angle_r	knee_angle_r_beta	ankle_angle_r	subtalar_angle_r	mtp_angle_r	hip_flexion_l	hip_adduction_l	hip_rotation_l	knee_angle_l	knee_angle_l_beta	ankle_angle_l	subtalar_angle_l	mtp_angle_l	L5_S1_Flex_Ext	L5_S1_Lat_Bending	L5_S1_axial_rotation	L4_L5_Flex_Ext	L4_L5_Lat_Bending	L4_L5_axial_rotation	L3_L4_Flex_Ext	L3_L4_Lat_Bending	L3_L4_axial_rotation	L2_L3_Flex_Ext	L2_L3_Lat_Bending	L2_L3_axial_rotation	L1_L2_Flex_Ext	L1_L2_Lat_Bending	L1_L2_axial_rotation	L1_T12_Flex_Ext	L1_T12_Lat_Bending	L1_T12_axial_rotation	Abs_r3	Abs_r2	Abs_r1	Abs_t1	Abs_t2	neck_flexion	neck_bending	neck_rotation	arm_flex_r	arm_add_r	arm_rot_r	elbow_flex_r	pro_sup_r	wrist_flex_r	wrist_dev_r	arm_flex_l	arm_add_l	arm_rot_l	elbow_flex_l	pro_sup_l	wrist_flex_l	wrist_dev_l
1.339623	-0.096274	-1.032152	93.808169	0.231711	0.834508	0.615364	-3.681506	0.612656	3.777097	3.714184	0.064825	25.819437	-2.466099	0.000000	-3.640845	-1.071705	4.568381	0.400598	0.006992	23.826961	-7.459881	0.000000	0.109736	0.065340	-0.898220	0.203790	0.086903	-0.954359	0.180285	0.158869	-0.954359	0.125417	0.158869	-0.785943	0.101901	0.133242	-0.729804	0.062703	0.101212	-0.673665	0.783831	0.739144	-4.995633	0.000000	0.000000	26.462609	5.050141	9.819555	4.156422	-14.749080	42.713245	83.847588	88.648224	16.994872	11.158848	-1.132167	-14.016267	23.902972	66.761803	87.485905	-12.322186	-6.278812
1.358491	-0.228762	-1.076327	93.278456	0.232424	0.834661	0.616430	-3.442119	0.434782	3.679654	3.847693	0.067155	26.077475	-1.620717	0.000000	-3.567774	-0.898523	4.039626	0.397440	0.006937	23.811078	-7.511816	0.000000	0.102509	0.054958	-0.799925	0.190370	0.073094	-0.849920	0.168412	0.133625	-0.849920	0.117158	0.133625	-0.699934	0.095190	0.112070	-0.649939	0.058574	0.085130	-0.599944	0.732212	0.621695	-4.448941	0.000000	0.000000	26.455427	4.986548	9.968210	4.533393	-14.669563	42.955450	83.491325	88.630249	15.602678	10.253600	-1.108309	-14.244871	23.774372	67.340695	87.616059	-12.564365	-6.712776
1.377358	-0.378297	-1.164509	92.691816	0.233208	0.834787	0.617702	-3.073653	0.232984	3.534831	4.104596	0.071639	26.380882	-0.666685	0.000000	-3.424426	-0.702125	3.380861	0.430979	0.007522	23.765045	-7.477570	0.000000	0.101382	0.042406	-0.688863	0.188276	0.056399	-0.731917	0.166560	0.103105	-0.731917	0.115869	0.103105	-0.602755	0.094143	0.086474	-0.559701	0.057930	0.065686	-0.516647	0.724161	0.479701	-3.831250	0.000000	0.000000	26.436356	4.824742	10.064773	4.813405	-14.598824	43.161077	83.111802	88.630088	14.170786	9.229270	-1.073205	-14.533032	23.735225	68.056610	87.628820	-12.698088	-6.889309
1.396226	-0.514375	-1.248841	92.025452	0.234036	0.834931	0.619131	-2.662184	0.044174	3.418564	4.407445	0.076924	26.657384	0.331685	0.000000	-3.286407	-0.514925	2.707144	0.454246	0.007928	23.650085	-7.559178	0.000000	0.098262	0.032741	-0.558023	0.182482	0.043546	-0.592900	0.161435	0.079607	-0.592900	0.112304	0.079607	-0.488270	0.091246	0.066766	-0.453394	0.056147	0.050716	-0.418517	0.701875	0.370377	-3.103557	0.000000	0.000000	26.461535	4.579939	10.157448	4.957942	-14.556897	43.280834	82.766959	88.540291	12.610758	8.331485	-0.988117	-14.843734	23.859191	68.796834	87.664757	-12.845070	-7.075434
1.415094	-0.645820	-1.345659	91.306592	0.234908	0.835073	0.620716	-2.182309	-0.133795	3.356205	4.785141	0.083516	26.919423	1.293995	0.000000	-3.119155	-0.330525	1.963750	0.498280	0.008697	23.503801	-7.634799	0.000000	0.096354	0.023852	-0.415090	0.178939	0.031723	-0.441034	0.158300	0.057993	-0.441034	0.110123	0.057993	-0.363204	0.089474	0.048638	-0.337261	0.055057	0.036946	-0.311318	0.688247	0.269813	-2.308609	0.000000	0.000000	26.492622	4.277740	10.215528	4.984493	-14.503178	43.285259	82.395059	88.466153	11.085001	7.590312	-0.885842	-15.158143	24.031122	69.563960	87.573451	-12.725037	-7.054436
1.433962	-0.768866	-1.454977	90.535565	0.235798	0.835194	0.622424	-1.646589	-0.300035	3.353420	5.220709	0.091119	27.157951	2.214571	0.000000	-2.933817	-0.153985	1.103129	0.546924	0.009546	23.349207	-7.621708	0.000000	0.094770	0.016456	-0.260934	0.175998	0.021887	-0.277243	0.155698	0.040011	-0.277243	0.108313	0.040011	-0.228317	0.088004	0.033557	-0.212009	0.054152	0.025490	-0.195701	0.676933	0.186154	-1.451238	0.000000	0.000000	26.565612	3.943282	10.248783	4.894340	-14.414351	43.124873	81.992933	88.428937	9.664557	7.087440	-0.769993	-15.445821	24.222819	70.301361	87.515723	-12.434343	-6.949125
1.452830	-0.879598	-1.582864	89.694694	0.236728	0.835272	0.624237	-1.046157	-0.442395	3.511680	5.728093	0.099974	27.355339	2.966952	0.000000	-2.726164	0.012930	0.243718	0.603583	0.010535	23.158164	-7.719908	0.000000	0.094198	0.011175	-0.093360	0.174935	0.014863	-0.099195	0.154758	0.027172	-0.099195	0.107659	0.027172	-0.081690	0.087472	0.022789	-0.075855	0.053825	0.017311	-0.070020	0.672847	0.126418	-0.519242	0.000000	0.000000	26.662220	3.598415	10.279409	4.693325	-14.273478	42.779585	81.562719	88.221880	8.344197	6.928270	-0.647359	-15.667570	24.358793	70.946248	87.606858	-11.874561	-6.872889
1.471698	-0.983968	-1.716232	88.877467	0.237597	0.835330	0.626078	-0.428167	-0.576721	3.691452	6.265957	0.109362	27.509678	3.615410	0.000000	-2.506174	0.169513	-0.716990	0.672207	0.011732	22.986988	-7.633677	0.000000	0.093422	0.006752	0.068260	0.173494	0.008980	0.072526	0.153483	0.016417	0.072526	0.106772	0.016417	0.059727	0.086752	0.013769	0.055461	0.053381	0.010459	0.051195	0.667303	0.076383	0.379640	0.000000	0.000000	26.772334	3.271196	10.316171	4.403204	-14.083624	42.325453	81.087870	87.527936	6.979423	6.970577	-0.519141	-15.870888	24.546270	71.543942	87.404148	-11.324235	-6.691257
1.490566	-1.063214	-1.854225	88.081788	0.238363	0.835351	0.627889	0.201992	-0.679404	3.937183	6.837188	0.119331	27.622543	4.108599	0.000000	-2.281878	0.299307	-1.697556	0.747267	0.013042	22.828777	-7.485599	0.000000	0.092579	0.006044	0.228729	0.171929	0.008039	0.243024	0.152098	0.014696	0.243024	0.105809	0.014696	0.200138	0.085969	0.012326	0.185842	0.052900	0.009363	0.171547	0.661284	0.068376	1.272121	0.000000	0.000000	26.884923	2.933775	10.337817	4.017966	-13.854464	41.675227	80.627891	86.296490	5.802034	7.397974	-0.381584	-16.021612	24.744082	72.046739	87.155435	-10.609800	-6.589001
1.509434	-1.116091	-1.990452	87.338836	0.239073	0.835348	0.629571	0.810598	-0.741334	4.257652	7.406533	0.129268	27.672720	4.402725	0.000000	-2.066113	0.393524	-2.613442	0.825476	0.014407	22.676123	-7.331518	0.000000	0.091597	0.007927	0.380932	0.170105	0.010543	0.404740	0.150485	0.019274	0.404740	0.104686	0.019274	0.333315	0.085057	0.016165	0.309507	0.052339	0.012279	0.285699	0.654270	0.089674	2.118628	0.000000	0.000000	26.994465	2.594776	10.353927	3.524226	-13.553339	40.790817	80.188413	84.660873	4.846523	8.167982	-0.280749	-16.134323	24.890035	72.501706	86.881542	-9.625345	-6.527121
